<?xml version="1.0" encoding="utf-8"?>
<!-- Generator: Adobe Illustrator 19.2.0, SVG Export Plug-In . SVG Version: 6.00 Build 0)  -->
<svg version="1.1" id="Слой_1" xmlns="http://www.w3.org/2000/svg" xmlns:xlink="http://www.w3.org/1999/xlink" x="0px" y="0px"
	 viewBox="0 0 1024 210" style="enable-background:new 0 0 1024 210;" xml:space="preserve">
<style type="text/css">
	.st0{fill:url(#SVGID_1_);}
	.st1{fill:url(#SVGID_2_);}
	.st2{fill:url(#SVGID_3_);}
	.st3{fill:url(#SVGID_4_);}
	.st4{fill:url(#SVGID_5_);}
	.st5{fill:url(#SVGID_6_);}
	.st6{fill:url(#SVGID_7_);}
</style>
<g>
	<linearGradient id="SVGID_1_" gradientUnits="userSpaceOnUse" x1="15.5102" y1="136.5659" x2="160.511" y2="-8.4349">
		<stop  offset="0" style="stop-color:#E84354"/>
		<stop  offset="6.479859e-002" style="stop-color:#D94E62"/>
		<stop  offset="0.2721" style="stop-color:#AF6E8B"/>
		<stop  offset="0.4741" style="stop-color:#8F87AB"/>
		<stop  offset="0.6669" style="stop-color:#7799C2"/>
		<stop  offset="0.8465" style="stop-color:#69A3D0"/>
		<stop  offset="1" style="stop-color:#64A7D5"/>
	</linearGradient>
	<path class="st0" d="M174.9,5.9L89.5,207.6h-2.9L1.2,5.9h2.6c0.9,0,1.5,0.5,1.8,1.4l80.1,189.6c0.5,1.1,0.9,2.1,1.2,3
		c0.3,1,0.7,2,1.1,3c0.4-1.1,0.8-2.1,1.1-3c0.3-1,0.8-2,1.2-3L170.5,7.3c0.3-1,1-1.4,2-1.4H174.9z"/>
	<linearGradient id="SVGID_2_" gradientUnits="userSpaceOnUse" x1="159.8307" y1="157.6457" x2="263.1881" y2="54.2883">
		<stop  offset="0" style="stop-color:#E84354"/>
		<stop  offset="6.479859e-002" style="stop-color:#D94E62"/>
		<stop  offset="0.2721" style="stop-color:#AF6E8B"/>
		<stop  offset="0.4741" style="stop-color:#8F87AB"/>
		<stop  offset="0.6669" style="stop-color:#7799C2"/>
		<stop  offset="0.8465" style="stop-color:#69A3D0"/>
		<stop  offset="1" style="stop-color:#64A7D5"/>
	</linearGradient>
	<path class="st1" d="M219.7,14c0,2-0.9,3.8-2.6,5.4c-1.7,1.6-3.6,2.4-5.6,2.4c-2.2,0-4.2-0.8-5.8-2.4c-1.6-1.6-2.4-3.4-2.4-5.4
		c0-2.2,0.8-4.1,2.4-5.7c1.6-1.6,3.5-2.4,5.8-2.4c2,0,3.9,0.8,5.6,2.4C218.9,9.9,219.7,11.8,219.7,14z M213.3,66.4v141.2h-3.5V66.4
		H213.3z"/>
	<linearGradient id="SVGID_3_" gradientUnits="userSpaceOnUse" x1="274.3023" y1="187.3754" x2="371.3842" y2="90.2935">
		<stop  offset="0" style="stop-color:#E84354"/>
		<stop  offset="6.479859e-002" style="stop-color:#D94E62"/>
		<stop  offset="0.2721" style="stop-color:#AF6E8B"/>
		<stop  offset="0.4741" style="stop-color:#8F87AB"/>
		<stop  offset="0.6669" style="stop-color:#7799C2"/>
		<stop  offset="0.8465" style="stop-color:#69A3D0"/>
		<stop  offset="1" style="stop-color:#64A7D5"/>
	</linearGradient>
	<path class="st2" d="M372.6,190.9c-1.7,2-4.1,4.1-7.4,6.3c-3.3,2.2-7.1,4.2-11.5,6c-4.4,1.8-9.3,3.3-14.5,4.5
		c-5.3,1.2-10.7,1.7-16.2,1.7c-9.8,0-18.7-1.7-26.5-5.1c-7.8-3.4-14.4-8.3-19.8-14.8c-5.4-6.4-9.6-14.3-12.5-23.6
		c-2.9-9.3-4.4-19.9-4.4-31.7c0-10.4,1.4-19.9,4.2-28.5c2.8-8.6,6.9-16,12.3-22.1c5.4-6.1,11.9-10.9,19.7-14.3
		c7.7-3.4,16.5-5.1,26.4-5.1c7.5,0,14.6,1.3,21.2,4c6.6,2.6,12.4,6.6,17.3,11.7c4.9,5.2,8.8,11.6,11.6,19.1c2.8,7.5,4.2,16.2,4.2,26
		c0,0.5-0.2,0.8-0.5,1.1c-0.3,0.2-0.8,0.4-1.2,0.4H263.6c-0.1,1.3-0.2,2.6-0.2,3.9c-0.1,1.2-0.1,2.5-0.1,3.9c0,11.7,1.4,22.1,4.2,31
		c2.8,9,6.8,16.5,12.1,22.6c5.2,6.1,11.5,10.7,18.9,13.9c7.4,3.2,15.5,4.8,24.5,4.8c8,0,14.9-0.9,20.8-2.6
		c5.8-1.7,10.7-3.6,14.6-5.8c3.9-2.1,6.9-4,8.9-5.8c2-1.7,3.3-2.6,3.7-2.6c0.4,0,0.8,0.2,1.2,0.6L372.6,190.9z M373.5,123.8
		c0-9.1-1.3-17.2-3.9-24.3c-2.6-7.1-6.3-13-10.9-17.8c-4.6-4.8-10.1-8.5-16.3-10.9c-6.2-2.5-12.9-3.7-20-3.7c-8.6,0-16.3,1.3-23.2,4
		c-6.9,2.7-12.8,6.5-17.8,11.5c-5,5-8.9,11-11.9,17.9c-3,7-4.9,14.7-5.8,23.3H373.5z"/>
	<linearGradient id="SVGID_4_" gradientUnits="userSpaceOnUse" x1="394.9737" y1="181.3957" x2="540.4655" y2="35.904">
		<stop  offset="0" style="stop-color:#E84354"/>
		<stop  offset="6.479859e-002" style="stop-color:#D94E62"/>
		<stop  offset="0.2721" style="stop-color:#AF6E8B"/>
		<stop  offset="0.4741" style="stop-color:#8F87AB"/>
		<stop  offset="0.6669" style="stop-color:#7799C2"/>
		<stop  offset="0.8465" style="stop-color:#69A3D0"/>
		<stop  offset="1" style="stop-color:#64A7D5"/>
	</linearGradient>
	<path class="st3" d="M474.4,5.9c21.7,0,37.9,4.3,48.6,12.9c10.7,8.6,16,21,16,37.2c0,6-1.2,11.7-3.6,17.3c-2.4,5.6-5.7,10.6-9.9,15
		c-4.2,4.4-9.2,8.1-14.9,11c-5.8,2.9-12,4.7-18.7,5.4c8.8,0.6,16.6,2.1,23.6,4.7c7,2.5,12.9,6,17.8,10.2c4.9,4.3,8.7,9.3,11.3,15.2
		c2.6,5.9,3.9,12.4,3.9,19.7c0,8.5-1.5,16.1-4.5,22.8c-3,6.6-7.3,12.2-13,16.6c-5.7,4.5-12.7,7.9-20.9,10.2
		c-8.2,2.3-17.6,3.5-28,3.5h-61.1V5.9H474.4z M424.7,8.8v95.1h51.2c10.9,0,20.2-1.5,27.8-4.5c7.6-3,13.8-6.8,18.6-11.5
		c4.8-4.7,8.2-9.8,10.4-15.4c2.1-5.6,3.2-11.1,3.2-16.5c0-15-5-26.6-15.1-34.9c-10.1-8.3-25.5-12.4-46.3-12.4H424.7z M482.3,204.7
		c9.8,0,18.7-1.1,26.5-3.2c7.8-2.1,14.4-5.3,19.8-9.4s9.5-9.4,12.4-15.7c2.8-6.3,4.2-13.6,4.2-21.8c0-7.3-1.5-13.9-4.5-19.8
		c-3-5.9-7.2-10.9-12.6-15.1s-12-7.4-19.7-9.6c-7.7-2.2-16.4-3.3-25.8-3.3h-57.9v98H482.3z"/>
	<linearGradient id="SVGID_5_" gradientUnits="userSpaceOnUse" x1="596.7443" y1="186.5844" x2="696.1874" y2="87.1412">
		<stop  offset="0" style="stop-color:#E84354"/>
		<stop  offset="6.479859e-002" style="stop-color:#D94E62"/>
		<stop  offset="0.2721" style="stop-color:#AF6E8B"/>
		<stop  offset="0.4741" style="stop-color:#8F87AB"/>
		<stop  offset="0.6669" style="stop-color:#7799C2"/>
		<stop  offset="0.8465" style="stop-color:#69A3D0"/>
		<stop  offset="1" style="stop-color:#64A7D5"/>
	</linearGradient>
	<path class="st4" d="M646.5,64.1c10,0,19,1.8,26.8,5.3c7.8,3.5,14.3,8.4,19.7,14.8c5.3,6.3,9.3,14,12.1,23c2.7,9,4.1,18.9,4.1,29.9
		s-1.4,20.9-4.1,29.8c-2.7,8.9-6.8,16.5-12.1,22.8c-5.3,6.3-11.9,11.2-19.7,14.6c-7.8,3.4-16.7,5.1-26.8,5.1
		c-10.1,0-19.1-1.7-26.8-5.1c-7.7-3.4-14.3-8.3-19.6-14.6c-5.3-6.3-9.3-14-12.1-22.8c-2.7-8.9-4.1-18.8-4.1-29.8s1.4-20.9,4.1-29.9
		c2.7-9,6.7-16.6,12.1-23c5.3-6.3,11.8-11.3,19.6-14.8C627.4,65.9,636.3,64.1,646.5,64.1z M646.5,206.5c9.7,0,18.3-1.7,25.7-5
		c7.4-3.4,13.6-8.1,18.5-14.1c4.9-6.1,8.6-13.3,11.1-21.9c2.5-8.5,3.7-18,3.7-28.4c0-10.4-1.2-19.9-3.7-28.5
		c-2.5-8.6-6.2-16-11.1-22.1c-4.9-6.1-11.1-10.9-18.5-14.3c-7.4-3.4-16-5.1-25.7-5.1c-9.8,0-18.4,1.7-25.8,5.1
		c-7.4,3.4-13.5,8.2-18.4,14.3c-4.9,6.1-8.6,13.5-11.1,22.1c-2.5,8.6-3.7,18.1-3.7,28.5c0,10.4,1.2,19.8,3.7,28.4
		c2.5,8.5,6.2,15.8,11.1,21.9c4.9,6.1,11.1,10.8,18.4,14.1C628,204.8,636.6,206.5,646.5,206.5z"/>
	<linearGradient id="SVGID_6_" gradientUnits="userSpaceOnUse" x1="757.7023" y1="186.5844" x2="857.1454" y2="87.1412">
		<stop  offset="0" style="stop-color:#E84354"/>
		<stop  offset="6.479859e-002" style="stop-color:#D94E62"/>
		<stop  offset="0.2721" style="stop-color:#AF6E8B"/>
		<stop  offset="0.4741" style="stop-color:#8F87AB"/>
		<stop  offset="0.6669" style="stop-color:#7799C2"/>
		<stop  offset="0.8465" style="stop-color:#69A3D0"/>
		<stop  offset="1" style="stop-color:#64A7D5"/>
	</linearGradient>
	<path class="st5" d="M807.4,64.1c10,0,19,1.8,26.8,5.3c7.8,3.5,14.3,8.4,19.7,14.8c5.3,6.3,9.3,14,12.1,23c2.7,9,4.1,18.9,4.1,29.9
		s-1.4,20.9-4.1,29.8c-2.7,8.9-6.8,16.5-12.1,22.8c-5.3,6.3-11.9,11.2-19.7,14.6c-7.8,3.4-16.7,5.1-26.8,5.1
		c-10.1,0-19.1-1.7-26.8-5.1c-7.7-3.4-14.3-8.3-19.6-14.6c-5.3-6.3-9.3-14-12.1-22.8c-2.7-8.9-4.1-18.8-4.1-29.8s1.4-20.9,4.1-29.9
		c2.7-9,6.7-16.6,12.1-23c5.3-6.3,11.8-11.3,19.6-14.8C788.3,65.9,797.3,64.1,807.4,64.1z M807.4,206.5c9.7,0,18.3-1.7,25.7-5
		c7.4-3.4,13.6-8.1,18.5-14.1c4.9-6.1,8.6-13.3,11.1-21.9c2.5-8.5,3.7-18,3.7-28.4c0-10.4-1.2-19.9-3.7-28.5
		c-2.5-8.6-6.2-16-11.1-22.1c-4.9-6.1-11.1-10.9-18.5-14.3c-7.4-3.4-16-5.1-25.7-5.1c-9.8,0-18.4,1.7-25.8,5.1
		c-7.4,3.4-13.5,8.2-18.4,14.3c-4.9,6.1-8.6,13.5-11.1,22.1c-2.5,8.6-3.7,18.1-3.7,28.5c0,10.4,1.2,19.8,3.7,28.4
		c2.5,8.5,6.2,15.8,11.1,21.9c4.9,6.1,11.1,10.8,18.4,14.1C789,204.8,797.6,206.5,807.4,206.5z"/>
	<linearGradient id="SVGID_7_" gradientUnits="userSpaceOnUse" x1="887.7902" y1="180.5188" x2="1005.0214" y2="63.2876">
		<stop  offset="0" style="stop-color:#E84354"/>
		<stop  offset="6.479859e-002" style="stop-color:#D94E62"/>
		<stop  offset="0.2721" style="stop-color:#AF6E8B"/>
		<stop  offset="0.4741" style="stop-color:#8F87AB"/>
		<stop  offset="0.6669" style="stop-color:#7799C2"/>
		<stop  offset="0.8465" style="stop-color:#69A3D0"/>
		<stop  offset="1" style="stop-color:#64A7D5"/>
	</linearGradient>
	<path class="st6" d="M918.4,0.1v130.2h6.7c0.9,0,1.9-0.1,3.1-0.3c1.2-0.2,2.5-1,3.9-2.3l68.1-59.1c0.8-0.8,1.6-1.3,2.3-1.7
		c0.8-0.4,1.8-0.6,2.9-0.6h2.6l-72.5,62.5c-1.3,1.2-2.5,2-3.7,2.4c1.4,0.4,2.5,0.9,3.5,1.5c1,0.6,1.9,1.3,2.8,2.1l75.7,72.6h-2.6
		c-0.8,0-1.5-0.1-2-0.3c-0.6-0.2-1.3-0.7-2-1.4L935.3,137c-1.8-1.5-3.3-2.6-4.7-3.2c-1.4-0.6-3.5-0.9-6.4-0.9h-5.8v74.6h-3.5V0.1
		H918.4z"/>
</g>
</svg>
