<?xml version="1.0" encoding="utf-8"?>
<!-- Generator: Adobe Illustrator 19.2.0, SVG Export Plug-In . SVG Version: 6.00 Build 0)  -->
<svg version="1.1" id="Слой_1" xmlns="http://www.w3.org/2000/svg" xmlns:xlink="http://www.w3.org/1999/xlink" x="0px" y="0px"
	 viewBox="0 0 700 210" style="enable-background:new 0 0 700 210;" xml:space="preserve">
<style type="text/css">
	.st0{fill:url(#SVGID_1_);}
	.st1{fill:url(#SVGID_2_);}
	.st2{fill:url(#SVGID_3_);}
	.st3{fill:url(#SVGID_4_);}
	.st4{fill:url(#SVGID_5_);}
	.st5{fill:url(#SVGID_6_);}
</style>
<g>
	<linearGradient id="SVGID_1_" gradientUnits="userSpaceOnUse" x1="-20.8217" y1="141.9886" x2="95.8813" y2="25.2855">
		<stop  offset="0" style="stop-color:#E84354"/>
		<stop  offset="6.479859e-002" style="stop-color:#D94E62"/>
		<stop  offset="0.2721" style="stop-color:#AF6E8B"/>
		<stop  offset="0.4741" style="stop-color:#8F87AB"/>
		<stop  offset="0.6669" style="stop-color:#7799C2"/>
		<stop  offset="0.8465" style="stop-color:#69A3D0"/>
		<stop  offset="1" style="stop-color:#64A7D5"/>
	</linearGradient>
	<path class="st0" d="M42.9,0.8c17.3,0,30.1,3.5,38.6,10.4c8.5,6.9,12.7,16.9,12.7,30c0,4.8-0.9,9.5-2.8,13.9
		c-1.9,4.5-4.5,8.5-7.8,12.1c-3.3,3.6-7.3,6.5-11.8,8.9c-4.6,2.4-9.5,3.8-14.9,4.4c7,0.5,13.2,1.7,18.8,3.8
		c5.5,2.1,10.3,4.8,14.2,8.2c3.9,3.4,6.9,7.5,9,12.3c2.1,4.7,3.1,10,3.1,15.9c0,6.9-1.2,13-3.5,18.4c-2.4,5.3-5.8,9.8-10.3,13.4
		c-4.5,3.6-10.1,6.3-16.6,8.2c-6.5,1.9-14,2.8-22.2,2.8H0.6V0.8H42.9z M3.4,3.1v76.7h40.7c8.7,0,16-1.2,22.1-3.6
		c6-2.4,11-5.5,14.8-9.2c3.8-3.8,6.5-7.9,8.2-12.4c1.7-4.5,2.6-9,2.6-13.3c0-12.1-4-21.5-12-28.1c-8-6.7-20.3-10-36.8-10H3.4z
		 M49.2,161.1c7.8,0,14.8-0.9,21-2.6c6.2-1.7,11.4-4.2,15.7-7.6c4.3-3.4,7.6-7.6,9.8-12.7c2.2-5.1,3.4-10.9,3.4-17.6
		c0-5.9-1.2-11.2-3.5-16c-2.4-4.8-5.7-8.8-10-12.2c-4.3-3.4-9.5-5.9-15.7-7.7c-6.2-1.8-13-2.7-20.5-2.7h-46v79H49.2z"/>
	<linearGradient id="SVGID_2_" gradientUnits="userSpaceOnUse" x1="131.1002" y1="152.9841" x2="211.4902" y2="72.5941">
		<stop  offset="0" style="stop-color:#E84354"/>
		<stop  offset="6.479859e-002" style="stop-color:#D94E62"/>
		<stop  offset="0.2721" style="stop-color:#AF6E8B"/>
		<stop  offset="0.4741" style="stop-color:#8F87AB"/>
		<stop  offset="0.6669" style="stop-color:#7799C2"/>
		<stop  offset="0.8465" style="stop-color:#69A3D0"/>
		<stop  offset="1" style="stop-color:#64A7D5"/>
	</linearGradient>
	<path class="st1" d="M133.5,65.9c5.6-5.9,11.3-10.4,17.3-13.5c6-3.1,12.9-4.6,20.8-4.6c5.8,0,10.8,0.9,15,2.8
		c4.2,1.9,7.7,4.5,10.5,8c2.8,3.5,4.8,7.7,6.2,12.7c1.3,5,2,10.6,2,16.9v75.3h-0.5c-1.1,0-1.6-0.6-1.6-1.9l-0.7-18.6
		c-3.3,3.4-6.5,6.5-9.8,9.2c-3.3,2.7-6.7,5.1-10.3,7c-3.6,1.9-7.6,3.4-11.7,4.5c-4.2,1-8.8,1.6-13.9,1.6c-3.4,0-6.9-0.5-10.3-1.6
		c-3.5-1-6.6-2.7-9.4-5c-2.8-2.3-5.1-5.2-6.9-8.8c-1.8-3.6-2.7-8-2.7-13.2c0-5.1,1.5-9.7,4.5-13.8c3-4.1,7.6-7.5,13.8-10.4
		c6.2-2.9,13.9-5.1,23.4-6.8c9.4-1.7,20.5-2.7,33.4-3V88.2c0-6-0.7-11.3-2-16c-1.3-4.7-3.3-8.7-5.8-12c-2.6-3.3-5.8-5.8-9.6-7.5
		c-3.9-1.7-8.4-2.6-13.5-2.6c-4,0-7.7,0.4-10.9,1.3c-3.3,0.9-6.2,1.9-8.7,3.1c-2.6,1.2-4.8,2.6-6.7,4.1c-1.9,1.5-3.5,2.8-4.9,4.1
		c-1.4,1.2-2.5,2.3-3.4,3.1c-0.9,0.9-1.5,1.3-1.9,1.3c-0.3,0-0.7-0.2-1.2-0.7L133.5,65.9z M202.6,105.1c-24.4,0.8-42.5,3.8-54.4,9.1
		c-11.9,5.3-17.8,12.8-17.8,22.5c0,4.6,0.8,8.5,2.3,11.8c1.5,3.3,3.5,6,6,8.1c2.5,2.1,5.3,3.7,8.5,4.8c3.2,1,6.4,1.6,9.8,1.6
		c5.3,0,10.2-0.6,14.5-1.9c4.3-1.2,8.3-2.9,12-5c3.7-2.1,7.1-4.5,10.2-7.3c3.1-2.7,6.1-5.6,9-8.7V105.1z"/>
	<linearGradient id="SVGID_3_" gradientUnits="userSpaceOnUse" x1="233.1629" y1="149.6893" x2="348.5233" y2="34.3289">
		<stop  offset="0" style="stop-color:#E84354"/>
		<stop  offset="6.479859e-002" style="stop-color:#D94E62"/>
		<stop  offset="0.2721" style="stop-color:#AF6E8B"/>
		<stop  offset="0.4741" style="stop-color:#8F87AB"/>
		<stop  offset="0.6669" style="stop-color:#7799C2"/>
		<stop  offset="0.8465" style="stop-color:#69A3D0"/>
		<stop  offset="1" style="stop-color:#64A7D5"/>
	</linearGradient>
	<path class="st2" d="M334.1,49.6v113.9h-2.8V58.9c0-0.8,0-1.5,0-2.2c0-0.7,0-1.4,0.1-2.2c-0.9,1.3-1.6,2.4-2.1,3.1
		c-0.1,0.2-0.7,0.9-1.7,2.4c-1.1,1.4-2.6,3.4-4.5,5.9c-1.9,2.5-4.1,5.4-6.7,8.7c-2.6,3.3-5.3,6.9-8.2,10.8c-2.9,3.9-6,8-9.3,12.3
		c-3.3,4.3-6.5,8.6-9.9,13c-11.6,15.3-24.8,32.7-39.6,52c-0.4,0.5-0.8,0.8-1.3,0.8h-1.2V49.6h2.8v104.6c0,0.8,0,1.5,0,2.2
		c0,0.7,0,1.4-0.1,2.2c0.8-1.2,1.5-2.3,2.1-3.1c0.1-0.2,1.3-1.8,3.7-4.9c2.4-3.1,5.4-7.1,9.2-12c3.8-4.9,8.1-10.5,12.8-16.8
		c4.8-6.3,9.6-12.7,14.6-19.2c11.6-15.3,24.8-32.7,39.6-52c0.4-0.5,0.8-0.8,1.3-0.8H334.1z M291.2,25c7.5,0,13.1-2,16.7-5.9
		c3.6-3.9,5.4-10,5.4-18.2h1.2c0.4,0,0.7,0.1,1,0.4c0.3,0.3,0.4,0.7,0.4,1.3c0,3.6-0.5,6.9-1.4,9.9c-0.9,2.9-2.4,5.5-4.4,7.6
		c-2,2.1-4.5,3.7-7.7,4.9c-3.1,1.2-6.9,1.7-11.2,1.7c-4.3,0-8.1-0.6-11.2-1.7c-3.1-1.2-5.7-2.8-7.7-4.9c-2-2.1-3.4-4.6-4.4-7.6
		c-0.9-2.9-1.4-6.2-1.4-9.9c0-0.6,0.1-1.1,0.4-1.3c0.3-0.3,0.6-0.4,1-0.4h1.2c0,8.2,1.8,14.3,5.4,18.2C278.1,23,283.7,25,291.2,25z"
		/>
	<linearGradient id="SVGID_4_" gradientUnits="userSpaceOnUse" x1="375.8869" y1="137.1794" x2="492.3947" y2="20.6716">
		<stop  offset="0" style="stop-color:#E84354"/>
		<stop  offset="6.479859e-002" style="stop-color:#D94E62"/>
		<stop  offset="0.2721" style="stop-color:#AF6E8B"/>
		<stop  offset="0.4741" style="stop-color:#8F87AB"/>
		<stop  offset="0.6669" style="stop-color:#7799C2"/>
		<stop  offset="0.8465" style="stop-color:#69A3D0"/>
		<stop  offset="1" style="stop-color:#64A7D5"/>
	</linearGradient>
	<path class="st3" d="M430.6,7.4c-9.3,1.1-17.4,3.6-24.2,7.6c-6.9,4-12.5,9.5-17,16.4c-4.5,7-7.8,15.5-10,25.4
		c-2.2,10-3.4,21.6-3.6,34.7c1.2-6.2,3.4-11.7,6.6-16.4c3.1-4.8,6.9-8.8,11.4-12c4.5-3.2,9.4-5.7,14.9-7.3c5.5-1.7,11.1-2.5,17-2.5
		c7.7,0,14.6,1.3,20.6,4c6,2.7,11.1,6.4,15.2,11.3c4.1,4.9,7.3,10.8,9.5,17.7c2.2,6.9,3.3,14.5,3.3,22.9c0,8.3-1.2,15.8-3.5,22.7
		c-2.3,6.8-5.7,12.7-10,17.5c-4.4,4.9-9.7,8.7-16,11.3c-6.3,2.7-13.4,4-21.3,4c-6.4,0-12.6-1.1-18.6-3.4c-6-2.2-11.3-6.2-15.9-11.8
		c-4.6-5.6-8.3-13.2-11-22.7c-2.8-9.5-4.1-21.4-4.1-35.8c0-12.9,1.2-24.5,3.5-34.7c2.3-10.2,5.8-19,10.5-26.3
		c4.7-7.3,10.6-13.1,17.7-17.4c7.1-4.3,15.5-7,25.2-8.1L471.7,0l0.1,1c0.1,1-0.3,1.5-1.3,1.6L430.6,7.4z M423.3,162.6
		c7.7,0,14.6-1.3,20.6-3.8c6-2.6,11-6.2,15.1-10.9c4.1-4.7,7.1-10.3,9.2-16.8c2.1-6.5,3.1-13.8,3.1-21.8c0-8-1-15.3-3-21.8
		c-2-6.6-4.9-12.2-8.7-17c-3.8-4.7-8.6-8.4-14.3-11c-5.7-2.6-12.3-3.9-19.8-3.9c-6.9,0-13.3,1.1-19.2,3.3
		c-5.9,2.2-11.1,5.3-15.4,9.4c-4.3,4.1-7.7,9-10.2,14.9c-2.5,5.8-3.7,12.4-3.7,19.7c0,8.9,1,17,3.1,24.3c2.1,7.3,5.1,13.6,9,18.8
		c3.9,5.2,8.8,9.3,14.5,12.2C409.4,161.2,415.9,162.6,423.3,162.6z"/>
	<linearGradient id="SVGID_5_" gradientUnits="userSpaceOnUse" x1="475.3845" y1="159.5673" x2="589.0024" y2="45.9493">
		<stop  offset="0" style="stop-color:#E84354"/>
		<stop  offset="6.479859e-002" style="stop-color:#D94E62"/>
		<stop  offset="0.2721" style="stop-color:#AF6E8B"/>
		<stop  offset="0.4741" style="stop-color:#8F87AB"/>
		<stop  offset="0.6669" style="stop-color:#7799C2"/>
		<stop  offset="0.8465" style="stop-color:#69A3D0"/>
		<stop  offset="1" style="stop-color:#64A7D5"/>
	</linearGradient>
	<path class="st4" d="M592.7,49.6l-67.1,153.1c-0.2,0.6-0.6,1.2-1,1.7c-0.5,0.5-1,0.8-1.7,0.8h-1.6l19.5-43.8L491.4,49.6h1.6
		c0.6,0,1.1,0.2,1.5,0.5c0.4,0.3,0.7,0.7,0.8,1.1l45.3,103.4c0.6,1.3,1.1,2.8,1.5,4.3c0.2-0.7,0.4-1.4,0.6-2.1
		c0.3-0.7,0.6-1.5,0.9-2.1l45.3-103.4c0.5-1.1,1.2-1.6,2.1-1.6H592.7z"/>
	<linearGradient id="SVGID_6_" gradientUnits="userSpaceOnUse" x1="611.4761" y1="155.0913" x2="706.622" y2="59.9453">
		<stop  offset="0" style="stop-color:#E84354"/>
		<stop  offset="6.479859e-002" style="stop-color:#D94E62"/>
		<stop  offset="0.2721" style="stop-color:#AF6E8B"/>
		<stop  offset="0.4741" style="stop-color:#8F87AB"/>
		<stop  offset="0.6669" style="stop-color:#7799C2"/>
		<stop  offset="0.8465" style="stop-color:#69A3D0"/>
		<stop  offset="1" style="stop-color:#64A7D5"/>
	</linearGradient>
	<path class="st5" d="M692.1,50.8c0.3-0.3,0.7-0.6,1-0.8c0.4-0.2,0.8-0.3,1.3-0.3h1.9l-36.8,46.1c-1.8,2.2-3.8,4.1-6,5.8
		c-2.2,1.7-4.8,3-7.8,3.8c6.7,1.2,12.3,4.6,16.8,10.5l37.5,47.6h-2c-1.1,0-2-0.3-2.7-1l-34.7-45c-2.6-3.4-5.7-6-9.1-7.8
		c-3.4-1.8-7.3-2.7-11.7-2.7h-17v56.8h-2.8V49.6h2.8v55h15.5c3.3,0,6.5-0.9,9.9-2.6c3.3-1.7,6.1-4,8.2-6.7L692.1,50.8z"/>
</g>
</svg>
